<svg xmlns="http://www.w3.org/2000/svg" version="1.0" width="500.000000pt" height="500.000000pt" viewBox="0 0 500.000000 500.000000" preserveAspectRatio="xMidYMid meet">

<g transform="translate(0.000000,500.000000) scale(0.100000,-0.100000)" fill="#f27b50" stroke="none">
<path d="M2870 4711 c-175 -54 -286 -253 -236 -426 21 -69 36 -96 90 -153 64 -68 125 -95 226 -100 70 -3 95 0 142 18 79 29 150 96 190 178 29 59 33 76 33 147 0 71 -4 88 -33 147 -63 128 -175 199 -315 197 -40 0 -83 -4 -97 -8z m221 -94 c101 -52 149 -130 149 -243 0 -110 -52 -193 -152 -243 -111 -56 -224 -36 -315 54 -111 111 -111 269 1 380 91 92 205 110 317 52z" fill="#f27b50"/>
<path d="M2895 4551 c-47 -22 -89 -64 -104 -104 -15 -39 -14 -111 3 -150 24 -59 111 -117 176 -117 34 0 91 22 121 47 115 97 74 293 -69 333 -52 14 -81 12 -127 -9z m135 -76 c34 -17 60 -62 60 -100 0 -119 -171 -159 -226 -54 -27 52 -10 120 38 153 28 20 90 20 128 1z" fill="#f27b50"/>
<path d="M1923 4386 c-91 -29 -167 -98 -211 -195 -21 -45 -26 -71 -27 -136 0 -71 4 -88 33 -147 40 -82 111 -149 190 -178 77 -29 205 -25 271 9 158 82 232 254 181 422 -19 63 -30 81 -83 134 -77 76 -145 105 -245 104 -37 0 -86 -6 -109 -13z m233 -84 c96 -49 163 -170 151 -273 -7 -57 -45 -134 -84 -170 -55 -52 -111 -74 -193 -74 -66 0 -82 4 -130 31 -102 58 -146 143 -138 266 8 107 74 196 173 233 56 21 168 14 221 -13z" fill="#f27b50"/>
<path d="M1955 4231 c-166 -77 -146 -313 31 -360 68 -18 135 2 186 56 34 36 48 73 48 128 0 81 -39 141 -115 176 -51 24 -99 24 -150 0z m143 -77 c28 -19 52 -65 52 -99 0 -34 -24 -80 -52 -99 -29 -21 -102 -20 -134 0 -98 65 -52 214 66 214 25 0 56 -7 68 -16z" fill="#f27b50"/>
<path d="M2850 3627 c0 -207 -3 -286 -12 -295 -9 -9 -97 -12 -334 -12 -177 0 -329 3 -338 6 -13 5 -16 27 -16 135 l0 129 -41 0 -41 0 4 -134 c3 -118 6 -138 24 -163 36 -48 63 -52 404 -52 341 0 368 4 404 52 20 27 21 42 24 323 l3 294 -41 0 -40 0 0 -283z" fill="#f27b50"/>
<path d="M3010 3747 c0 -113 4 -167 12 -175 8 -8 54 -12 140 -12 l128 0 0 35 0 35 -105 0 -105 0 0 140 0 140 -35 0 -35 0 0 -163z" fill="#f27b50"/>
<path d="M3692 3859 c-111 -18 -208 -95 -259 -204 -39 -84 -39 -195 -1 -277 35 -75 98 -141 167 -175 49 -25 67 -28 151 -28 84 0 102 3 151 28 69 34 132 100 167 175 38 83 38 192 -2 279 -31 68 -97 138 -163 171 -34 18 -58 24 -138 36 -11 2 -44 -1 -73 -5z m151 -85 c152 -52 225 -236 151 -381 -33 -64 -101 -123 -164 -142 -175 -52 -352 79 -353 262 -1 192 183 324 366 261z" fill="#f27b50"/>
<path d="M3680 3694 c-133 -58 -161 -234 -51 -327 30 -25 87 -47 121 -47 67 0 142 50 171 115 71 156 -86 326 -241 259z m138 -80 c70 -49 66 -161 -8 -199 -107 -55 -219 50 -165 155 22 42 53 60 105 60 25 0 56 -7 68 -16z" fill="#f27b50"/>
<path d="M850 3775 c-195 -55 -301 -248 -241 -443 28 -92 93 -166 183 -208 54 -25 75 -29 148 -29 72 0 94 4 143 27 220 103 271 392 99 561 -88 87 -219 123 -332 92z m185 -82 c65 -22 136 -93 158 -158 37 -107 14 -212 -66 -293 -107 -109 -272 -108 -383 3 -209 208 9 544 291 448z" fill="#f27b50"/>
<path d="M878 3620 c-78 -23 -132 -100 -131 -186 1 -106 82 -186 188 -187 141 -1 235 141 176 268 -41 90 -138 134 -233 105z m129 -85 c33 -22 56 -80 48 -121 -8 -46 -65 -94 -111 -94 -73 0 -124 51 -124 124 0 37 37 91 74 107 28 12 82 4 113 -16z" fill="#f27b50"/>
<path d="M1922 3433 c3 -151 4 -160 30 -205 62 -105 136 -138 309 -138 l118 0 3 -62 3 -63 38 -3 37 -3 0 88 c0 56 -4 93 -12 101 -8 8 -58 12 -158 12 -134 0 -151 2 -191 23 -24 13 -57 43 -74 66 -30 42 -30 44 -33 192 l-3 149 -36 0 -35 0 4 -157z" fill="#f27b50"/>
<path d="M1400 3516 l0 -34 114 -4 c108 -3 117 -5 157 -33 23 -16 53 -50 66 -74 23 -44 23 -46 23 -426 0 -283 3 -384 12 -393 8 -8 54 -12 141 -12 l128 0 -3 38 -3 37 -102 3 -102 3 -3 372 c-3 362 -4 373 -25 413 -29 54 -93 109 -151 128 -30 11 -82 16 -149 16 l-103 0 0 -34z" fill="#f27b50"/>
<path d="M3016 3454 c-3 -9 -6 -44 -6 -78 0 -79 -30 -139 -89 -181 -42 -30 -44 -30 -199 -33 -88 -2 -163 -8 -169 -14 -9 -7 -13 -40 -13 -100 l0 -89 38 3 37 3 3 63 3 62 113 0 c131 0 194 15 249 60 57 48 88 110 95 185 l5 65 103 0 104 0 0 35 0 35 -134 0 c-113 0 -135 -2 -140 -16z" fill="#f27b50"/>
<path d="M1400 3360 l0 -40 88 0 c55 0 92 -4 100 -12 9 -9 12 -100 12 -350 l0 -338 -252 -2 -253 -3 -3 -37 -3 -38 285 0 c272 0 286 1 296 19 6 13 10 150 10 378 0 321 -2 362 -18 393 -26 52 -70 70 -174 70 l-88 0 0 -40z" fill="#f27b50"/>
<path d="M547 2840 c-66 -17 -133 -58 -180 -110 -155 -173 -97 -449 115 -546 53 -24 76 -28 143 -28 106 0 185 34 255 111 195 214 57 558 -232 578 -35 2 -80 0 -101 -5z m200 -97 c93 -43 153 -139 153 -243 0 -201 -214 -334 -395 -246 -197 97 -208 371 -20 481 83 49 171 52 262 8z" fill="#f27b50"/>
<path d="M545 2671 c-65 -29 -115 -104 -115 -171 0 -99 94 -189 198 -190 98 0 192 93 192 190 0 98 -94 190 -195 190 -22 0 -58 -9 -80 -19z m135 -66 c79 -41 79 -169 0 -210 -105 -54 -210 58 -155 165 28 55 98 75 155 45z" fill="#f27b50"/>
<path d="M2409 2837 c-229 -65 -327 -327 -199 -526 148 -229 485 -204 605 45 25 50 29 71 30 144 0 74 -4 93 -29 144 -59 120 -165 193 -293 202 -40 2 -87 -2 -114 -9z m206 -87 c172 -75 213 -309 78 -443 -55 -56 -113 -80 -193 -80 -155 0 -273 118 -273 272 0 203 201 333 388 251z" fill="#f27b50"/>
<path d="M2412 2669 c-125 -63 -136 -250 -20 -326 56 -38 132 -43 193 -13 128 62 141 249 23 328 -56 36 -137 41 -196 11z m172 -88 c26 -27 31 -39 31 -81 0 -43 -5 -54 -33 -82 -28 -28 -39 -33 -82 -33 -43 0 -54 5 -82 33 -28 28 -33 39 -33 81 0 52 25 92 70 112 37 16 96 3 129 -30z" fill="#f27b50"/>
<path d="M4297 2840 c-66 -17 -133 -58 -180 -110 -155 -173 -97 -449 115 -546 52 -23 77 -28 143 -29 71 0 88 4 147 33 214 105 266 372 108 545 -82 89 -222 135 -333 107z m200 -96 c205 -98 203 -389 -4 -490 -180 -88 -393 45 -393 246 0 161 143 291 300 274 25 -3 69 -16 97 -30z" fill="#f27b50"/>
<path d="M4289 2670 c-62 -33 -109 -106 -109 -170 0 -34 22 -91 47 -121 97 -115 293 -74 333 69 12 46 12 58 0 104 -31 111 -170 172 -271 118z m141 -65 c104 -54 62 -225 -55 -225 -64 0 -115 55 -115 125 0 87 91 141 170 100z" fill="#f27b50"/>
<path d="M2967 2613 c-4 -3 -7 -21 -7 -40 l0 -33 476 0 475 0 -3 38 -3 37 -466 3 c-256 1 -469 -1 -472 -5z" fill="#f27b50"/>
<path d="M1092 2423 l3 -38 470 0 470 0 3 38 3 37 -476 0 -476 0 3 -37z" fill="#f27b50"/>
<path d="M2962 2423 l3 -38 102 -3 102 -3 3 -372 c3 -362 4 -373 25 -413 29 -54 93 -109 151 -128 30 -11 82 -16 149 -16 l103 0 0 34 0 34 -114 4 c-108 3 -117 5 -157 33 -23 17 -53 50 -66 74 -23 44 -23 46 -23 426 0 283 -3 384 -12 393 -8 8 -54 12 -141 12 l-128 0 3 -37z" fill="#f27b50"/>
<path d="M3332 2448 c-9 -9 -12 -108 -12 -382 0 -354 1 -372 20 -404 28 -46 73 -62 175 -62 l85 0 0 40 0 40 -84 0 c-46 0 -91 3 -100 6 -14 5 -16 46 -16 350 l0 344 253 2 252 3 3 38 3 37 -283 0 c-208 0 -287 -3 -296 -12z" fill="#f27b50"/>
<path d="M2380 1965 l0 -65 -127 0 c-107 0 -135 -4 -173 -21 -92 -41 -149 -122 -159 -224 l-6 -60 -103 -3 -103 -3 3 -32 3 -32 124 -3 c82 -2 128 1 137 9 9 8 14 33 14 76 0 100 35 165 112 204 31 16 59 19 178 19 78 0 150 5 161 10 17 9 19 22 19 100 l0 90 -40 0 -40 0 0 -65z" fill="#f27b50"/>
<path d="M2540 1940 c0 -78 2 -91 19 -100 11 -5 83 -10 161 -10 119 0 147 -3 178 -19 91 -47 112 -98 112 -276 l0 -135 35 0 35 0 0 148 c0 134 -2 151 -24 197 -29 60 -76 107 -136 134 -38 17 -66 21 -172 21 l-128 0 0 65 0 65 -40 0 -40 0 0 -90z" fill="#f27b50"/>
<path d="M3953 1891 c-150 -51 -238 -177 -237 -336 0 -90 36 -173 102 -238 136 -134 349 -136 483 -6 74 73 104 143 104 249 0 72 -4 94 -28 145 -46 98 -116 159 -217 189 -70 21 -142 20 -207 -3z m198 -68 c78 -25 152 -101 175 -178 79 -274 -256 -476 -456 -275 -139 138 -88 378 96 450 61 24 117 25 185 3z" fill="#f27b50"/>
<path d="M4020 1751 c-118 -37 -177 -147 -136 -256 76 -198 371 -142 369 70 0 73 -43 140 -108 173 -30 15 -97 22 -125 13z m100 -86 c101 -52 61 -220 -53 -220 -54 0 -94 26 -114 72 -43 103 67 200 167 148z" fill="#f27b50"/>
<path d="M1189 1820 c-58 -10 -138 -50 -179 -91 -177 -177 -128 -459 98 -570 39 -20 63 -24 142 -24 85 0 101 3 153 29 261 133 257 504 -8 626 -66 31 -136 41 -206 30z m176 -94 c206 -97 213 -392 12 -490 -72 -36 -131 -42 -200 -22 -124 36 -200 137 -200 263 1 80 19 127 71 185 78 87 212 114 317 64z" fill="#f27b50"/>
<path d="M1175 1656 c-98 -43 -142 -161 -96 -262 49 -107 193 -141 289 -67 61 46 89 147 61 220 -14 38 -67 92 -106 109 -40 17 -109 17 -148 0z m138 -78 c26 -13 57 -68 57 -101 0 -61 -58 -117 -120 -117 -18 0 -44 7 -60 16 -134 80 -17 274 123 202z" fill="#f27b50"/>
<path d="M2145 1741 c-11 -5 -31 -21 -45 -36 l-25 -27 -3 -299 -3 -299 40 0 41 0 2 293 3 292 345 0 345 0 3 -132 3 -133 40 0 41 0 -4 140 -3 140 -33 32 -32 33 -348 2 c-191 1 -356 -2 -367 -6z" fill="#f27b50"/>
<path d="M1712 1398 l3 -33 103 -3 102 -3 0 -139 0 -140 35 0 35 0 0 159 c0 88 -3 166 -6 175 -5 14 -27 16 -141 16 l-134 0 3 -32z" fill="#f27b50"/>
<path d="M2880 1274 c-156 -42 -255 -174 -255 -339 0 -71 4 -89 33 -147 38 -77 92 -130 171 -167 47 -22 70 -26 141 -26 76 0 93 4 152 33 77 38 128 91 166 172 38 80 38 191 -1 275 -48 102 -130 173 -234 200 -70 18 -102 18 -173 -1z m183 -80 c64 -22 130 -82 157 -145 27 -64 25 -171 -5 -233 -55 -113 -194 -179 -312 -147 -199 54 -275 293 -142 445 79 89 189 119 302 80z" fill="#f27b50"/>
<path d="M2905 1117 c-50 -20 -80 -45 -104 -88 -19 -34 -23 -52 -19 -104 3 -53 9 -71 35 -102 43 -54 85 -76 147 -77 165 -2 255 188 148 316 -49 58 -138 82 -207 55z m123 -77 c18 -11 40 -35 48 -54 50 -103 -74 -210 -170 -147 -76 51 -75 146 3 198 42 28 76 29 119 3z" fill="#f27b50"/>
<path d="M1950 956 c-134 -37 -222 -125 -256 -256 -40 -159 34 -319 184 -392 61 -30 75 -33 157 -33 79 1 97 4 148 30 70 35 130 98 165 173 33 72 37 192 9 261 -46 112 -130 187 -242 216 -70 18 -104 18 -165 1z m195 -90 c108 -50 175 -167 160 -281 -19 -155 -179 -270 -328 -236 -93 20 -176 94 -206 180 -19 58 -14 150 13 206 62 133 228 194 361 131z" fill="#f27b50"/>
<path d="M1955 793 c-144 -76 -152 -273 -13 -344 62 -31 154 -24 204 17 80 65 99 171 45 256 -49 77 -160 111 -236 71z m118 -67 c45 -19 68 -48 74 -94 15 -111 -119 -174 -199 -94 -58 58 -40 155 35 187 41 18 50 18 90 1z" fill="#f27b50"/>
</g>
</svg>