<svg xmlns="http://www.w3.org/2000/svg" version="1.0" width="500.000000pt" height="500.000000pt" viewBox="0 0 500.000000 500.000000" preserveAspectRatio="xMidYMid meet">

<g transform="translate(0.000000,500.000000) scale(0.100000,-0.100000)" fill="#f27b50" stroke="none">
<path d="M839 4990 c-146 -25 -270 -136 -313 -280 -14 -48 -16 -263 -16 -2210 0 -1947 2 -2162 16 -2210 35 -117 125 -215 241 -262 l58 -23 1675 0 1675 0 58 23 c114 46 207 147 241 261 14 50 16 256 16 2211 0 1947 -2 2162 -16 2210 -35 117 -125 215 -241 262 l-58 23 -1645 1 c-905 1 -1666 -2 -1691 -6z m3332 -287 c63 -54 59 106 59 -2203 0 -2309 4 -2149 -59 -2203 l-33 -27 -1638 0 -1638 0 -33 27 c-63 54 -59 -106 -59 2203 0 2309 -4 2149 59 2203 l33 27 1638 0 1638 0 33 -27z" fill="#f27b50"/>
<path d="M1220 4175 l0 -185 1280 0 1280 0 0 185 0 185 -1280 0 -1280 0 0 -185z" fill="#f27b50"/>
<path d="M1220 3245 l0 -115 795 0 795 0 0 115 0 115 -795 0 -795 0 0 -115z" fill="#f27b50"/>
<path d="M3000 2480 l0 -880 390 0 390 0 0 880 0 880 -390 0 -390 0 0 -880z m648 -3 l2 -747 -257 2 -258 3 -3 739 c-2 585 0 741 10 748 7 4 123 7 258 5 l245 -2 3 -748z" fill="#f27b50"/>
<path d="M1220 2725 l0 -115 795 0 795 0 0 115 0 115 -795 0 -795 0 0 -115z" fill="#f27b50"/>
<path d="M1220 2220 l0 -110 795 0 795 0 0 110 0 110 -795 0 -795 0 0 -110z" fill="#f27b50"/>
<path d="M1220 1715 l0 -115 795 0 795 0 0 115 0 115 -795 0 -795 0 0 -115z" fill="#f27b50"/>
<path d="M1220 1255 l0 -115 1280 0 1280 0 0 115 0 115 -1280 0 -1280 0 0 -115z" fill="#f27b50"/>
</g>
</svg>